<?xml version="1.0" ?><!DOCTYPE svg  PUBLIC '-//W3C//DTD SVG 1.1//EN'  'http://www.w3.org/Graphics/SVG/1.1/DTD/svg11.dtd'><svg xmlns="http://www.w3.org/2000/svg" xmlns:xlink="http://www.w3.org/1999/xlink" xmlns:serif="http://www.serif.com/" width="100%" height="100%" viewBox="0 0 512 512" version="1.1" xml:space="preserve" style="fill-rule:evenodd;clip-rule:evenodd;stroke-linejoin:round;stroke-miterlimit:2;"><g transform="matrix(1,0,0,1,-2248,-562)"><g id="Icons"><path d="M2389.63,834.735C2389.6,841.974 2389.79,849.556 2392.06,856.228C2396.85,870.364 2407.47,881.636 2413.13,895.328C2419.13,909.853 2421.43,925.134 2423.33,940.64C2423.48,941.86 2423.89,943.703 2424.15,945.533C2424.31,946.596 2424.56,947.647 2424.32,948.328C2423.78,949.825 2422.06,950.631 2420.38,951.507C2417.62,952.954 2414.59,954.145 2412.59,955.487C2408.85,958.003 2405.82,961.385 2403.78,965.408C2403.45,966.038 2402.39,967.886 2402.1,969.02C2401.8,970.192 2401.93,971.19 2402.18,971.892C2402.41,972.533 2403.04,973.951 2405.04,974.482C2405.8,974.684 2409.28,974.792 2409.66,974.816C2413.72,975.075 2417.81,975.204 2421.86,975.702C2433.84,977.175 2445.62,976.743 2457.63,976.17C2464.1,975.861 2470.42,975.248 2476.39,972.573C2478.79,973.897 2481.47,974.862 2484.45,975.387C2491.2,976.576 2500.62,974.352 2508.87,969.943C2517.25,965.467 2524.3,958.772 2526.57,951.815C2527.28,949.645 2527.03,947.441 2526.34,945.26C2526.1,944.483 2525.8,943.709 2525.53,942.942C2526.7,942.506 2527.93,942.049 2528.05,941.996C2533.24,939.718 2538.44,937.153 2542.7,933.331C2554.6,922.664 2559.8,906.875 2566.37,892.775C2567.22,890.954 2568.68,886.424 2570.33,882.721C2570.97,881.304 2572.13,879.475 2572.29,879.23C2575.73,877.255 2586.14,873.218 2593.81,872.172C2594.34,872.102 2594.84,872.044 2595.33,872.005C2595.4,872.001 2595.47,871.996 2595.54,871.988C2596.34,871.93 2597.09,871.922 2597.78,871.979L2597.88,871.987L2597.61,876.436C2597.11,884.132 2595.35,891.671 2593.9,899.227C2592.43,906.939 2591.52,915.37 2589.59,923.405C2587.81,930.85 2585.16,937.964 2580.07,943.651C2574.53,949.844 2567.16,953.835 2561.51,959.887C2560.59,960.876 2558.14,963.226 2556.82,965.217C2555.65,966.972 2555.26,968.714 2555.41,969.948C2555.52,970.867 2556.05,972.765 2558.56,973.476C2560.22,973.948 2568.28,973.955 2569.15,973.964C2580.3,974.07 2591.5,973.69 2602.63,973.176C2611.39,972.771 2620.16,972.556 2628.92,972.181C2630.18,972.127 2635.25,972.526 2637.8,972.163C2639.5,971.92 2640.67,971.247 2641.27,970.684C2645.29,966.873 2648.22,959.824 2651.12,955.084C2657.43,944.796 2663.78,934.484 2670.36,924.37C2670.75,923.774 2671.14,923.178 2671.53,922.579C2674.01,927.373 2676.26,932.284 2677.39,937.577C2677.66,938.834 2678,940.303 2678.1,941.765C2678.16,942.671 2678.19,943.585 2677.8,944.343C2676.69,946.496 2674.51,947.613 2672.37,948.811C2669.06,950.651 2665.68,952.484 2663.35,955.358C2662.14,956.847 2661.1,958.528 2660.2,960.215C2660.12,960.358 2659.44,961.645 2659.34,961.919C2658.18,964.893 2660.5,966.534 2660.95,966.808C2661.87,967.38 2663.33,967.804 2665.08,967.877C2667.27,967.969 2670.19,967.549 2671.53,967.554C2678.85,967.585 2686.16,967.599 2693.47,967.704C2701.84,967.823 2712.88,969.653 2720.79,966.813C2724.82,965.366 2728.21,962.107 2731.46,959.431C2737.94,954.095 2743.95,947.575 2746.53,939.392C2748.53,933.016 2748.06,925.45 2747.47,918.883C2746.1,903.684 2741.9,887.187 2736.86,872.802C2734.81,866.953 2732.21,861.268 2729.84,855.543C2726.98,848.643 2724.71,842.613 2721.53,836.027C2725.65,824.575 2728.5,812.65 2729.48,800.091C2734.57,734.86 2683.15,670.049 2618.5,661.178C2575.22,655.239 2531.91,665.257 2488.82,666.697C2472.91,667.229 2459.1,665.185 2445.41,664.978C2431.05,664.761 2416.82,666.485 2400.63,674.704C2383.53,683.387 2372.53,696.785 2358.9,709.684C2342.5,725.206 2321.97,742.988 2301.43,752.486C2300.95,752.711 2300.51,753.03 2300.15,753.426C2287.24,767.63 2273.61,794.066 2274.77,813.608C2275.28,822.003 2276.37,830.557 2272.35,838.295C2270.45,841.967 2266.41,846.11 2263.64,850.464C2261.25,854.22 2259.74,858.142 2260.04,862.004C2260.15,863.437 2260.9,865.158 2262.26,866.799C2264.21,869.148 2267.54,871.581 2269.08,872.661C2280.84,880.923 2294.62,879.585 2306.96,873.386C2313.83,869.935 2319.14,864.173 2326.09,860.801C2332.46,857.719 2339.57,856.417 2346.12,853.741C2360.74,847.764 2375.11,841.026 2389.63,834.735ZM2469.19,966.678C2467.72,964.968 2466.43,963.074 2465.33,961.042C2459.8,950.842 2459.03,937.069 2461.75,926.978C2465.46,913.225 2473.15,900.775 2475.95,886.767C2480.22,865.407 2469.47,839.497 2451,827.671C2432.31,815.703 2416.01,823.51 2397.64,831.316C2397.56,838.705 2397.28,846.729 2399.63,853.658C2404.37,867.631 2414.93,878.739 2420.52,892.272C2426.8,907.471 2429.29,923.444 2431.27,939.669C2431.49,941.413 2432.2,944.405 2432.33,946.863C2432.41,948.483 2432.24,949.945 2431.84,951.05C2430.87,953.728 2428.67,955.902 2425.84,957.613C2422.93,959.378 2419.29,960.625 2417.05,962.126C2415.12,963.425 2413.46,965.053 2412.15,966.951C2415.72,967.155 2419.29,967.326 2422.84,967.762C2434.36,969.179 2445.7,968.73 2457.25,968.179C2461.32,967.985 2465.33,967.733 2469.19,966.678ZM2713.69,834.42C2717.74,823.293 2720.55,811.698 2721.51,799.468C2726.28,738.266 2678.07,677.427 2617.41,669.103C2574.58,663.227 2531.72,673.268 2489.09,674.693C2476.18,675.124 2464.63,673.9 2453.41,673.282C2437.42,672.399 2422.13,672.766 2404.25,681.838C2387.87,690.156 2377.45,703.138 2364.4,715.494C2347.61,731.387 2326.58,749.476 2305.54,759.396L2305.54,759.398C2294.01,772.38 2281.72,795.711 2282.76,813.131C2283.35,822.958 2284.16,832.923 2279.45,841.981C2277.75,845.258 2274.53,848.923 2271.77,852.743C2269.79,855.48 2267.92,858.239 2268,861.094C2268.16,861.321 2268.64,861.962 2269,862.331C2270.54,863.907 2272.64,865.386 2273.68,866.115C2282.89,872.59 2293.7,871.096 2303.37,866.238C2310.27,862.769 2315.61,856.99 2322.61,853.602C2329.12,850.446 2336.39,849.075 2343.09,846.336C2359.54,839.614 2375.66,831.925 2392.05,824.997C2392.09,824.979 2392.13,824.961 2392.17,824.945C2392.4,824.846 2392.64,824.748 2392.87,824.649C2404.49,819.755 2415.38,815.005 2426.35,813.841C2426.53,813.761 2426.73,813.694 2426.93,813.641C2429.65,813.152 2432.23,812.561 2434.75,811.952C2438.9,810.946 2442.73,809.906 2446.33,808.521C2450.85,806.78 2454.86,804.786 2458.48,802.303C2454.84,806.559 2450.45,810.314 2445.1,813.733C2444.34,814.219 2443.57,814.693 2442.78,815.156C2446.88,816.328 2451.04,818.198 2455.31,820.934C2476.38,834.423 2488.66,863.97 2483.79,888.335C2480.96,902.517 2473.23,915.14 2469.47,929.063C2467.59,936.046 2467.7,945.155 2470.45,952.899C2472.99,960.059 2477.83,966.098 2485.84,967.509C2491.18,968.45 2498.57,966.377 2505.1,962.887C2511.51,959.462 2517.23,954.657 2518.96,949.334C2519.11,948.878 2518.93,948.425 2518.8,947.966C2518.59,947.221 2518.3,946.479 2518.04,945.743C2517.33,943.718 2516.89,941.702 2517.21,939.781C2517.3,939.236 2517.61,937.847 2519.28,936.865C2520.19,936.327 2524.55,934.793 2524.84,934.669C2529.26,932.729 2533.74,930.628 2537.37,927.374C2548.45,917.432 2553,902.539 2559.12,889.396C2560.12,887.258 2561.95,881.414 2563.96,877.507C2564.19,877.059 2564.43,876.632 2564.67,876.229C2564.69,876.184 2564.72,876.139 2564.74,876.094C2567.62,871.205 2569.7,866.232 2571.12,861.24C2573.44,853.068 2574.03,844.881 2573.06,836.868C2571.36,822.92 2565.27,809.667 2556.36,798.546C2566.7,808.984 2574.36,821.959 2577.52,836.098C2579.46,844.726 2579.69,853.755 2577.85,862.876C2577.45,864.832 2576.95,866.785 2576.34,868.738C2581.38,866.839 2587.59,864.945 2592.74,864.245C2593.34,864.163 2593.94,864.1 2594.52,864.056C2594.54,864.053 2594.57,864.049 2594.59,864.046C2598.7,863.65 2603.07,862.783 2607.62,861.614C2613.9,860 2620.45,857.834 2626.95,855.147C2637.8,850.663 2648.43,844.985 2657.26,838.778C2649.2,846.185 2639.3,853.361 2628.93,859.221C2622.54,862.834 2616.02,865.927 2609.66,868.232C2608.39,868.693 2607.13,869.116 2605.88,869.503C2606.19,871.705 2605.67,875.89 2605.6,876.955C2605.07,884.981 2603.27,892.847 2601.76,900.726C2598.67,916.944 2597.59,936.079 2586.03,948.986C2580.45,955.221 2573.05,959.253 2567.36,965.346C2567.24,965.477 2567.06,965.675 2566.85,965.916C2568.04,965.942 2569,965.962 2569.23,965.964C2580.23,966.069 2591.28,965.692 2602.26,965.184C2611.03,964.779 2619.8,964.564 2628.58,964.189C2629.42,964.153 2631.98,964.328 2634.33,964.341C2634.99,964.345 2635.86,964.293 2636.38,964.256C2639.62,960.759 2641.87,954.864 2644.3,950.901C2650.65,940.553 2657.03,930.18 2663.66,920.006C2681.24,893 2701.94,865.968 2713.31,835.443C2713.39,835.087 2713.52,834.742 2713.69,834.42ZM2717.43,846.374C2706.91,870.685 2691.24,892.994 2676.56,914.979C2680.11,921.664 2683.62,928.46 2685.21,935.904C2685.99,939.559 2686.74,944.451 2684.91,948.004C2683.39,950.958 2680.92,953.025 2678.07,954.752C2675.46,956.336 2672.41,957.5 2670.27,959.616C2670.78,959.577 2671.22,959.553 2671.56,959.554C2678.91,959.585 2686.25,959.6 2693.59,959.704C2701.09,959.811 2710.99,961.83 2718.09,959.283C2721.28,958.14 2723.81,955.368 2726.38,953.255C2731.68,948.887 2736.79,943.691 2738.89,936.993C2740.59,931.588 2740,925.167 2739.5,919.601C2738.19,905.036 2734.14,889.233 2729.31,875.449C2727.31,869.74 2724.77,864.195 2722.45,858.607C2720.67,854.305 2719.12,850.347 2717.43,846.374ZM2336.01,757.627C2340.89,755.438 2344.89,754.989 2348.24,755.426C2350.93,755.777 2352.99,756.955 2354.72,758.56C2356.52,760.233 2357.96,762.337 2358.88,764.864C2360.24,768.639 2360.73,772.973 2359.76,777.325C2361.91,773.032 2362.65,768.329 2362,764.055C2361.7,762.072 2361.04,760.227 2360.13,758.576C2359.47,757.382 2358.65,756.294 2357.67,755.398C2355.28,753.212 2352.08,751.881 2348.37,752.08C2344.69,752.277 2340.56,753.976 2336.01,757.627Z"/></g></g></svg>